<?xml version="1.0" standalone="no"?>
<!DOCTYPE svg PUBLIC "-//W3C//DTD SVG 20010904//EN"
 "http://www.w3.org/TR/2001/REC-SVG-20010904/DTD/svg10.dtd">
<svg version="1.0" xmlns="http://www.w3.org/2000/svg"
 width="300.000000pt" height="300.000000pt" viewBox="0 0 300.000000 300.000000"
 preserveAspectRatio="xMidYMid meet">
<metadata>
Created by potrace 1.10, written by Peter Selinger 2001-2011
</metadata>
<g transform="translate(0.000000,300.000000) scale(0.100000,-0.100000)"
fill="#000000" stroke="none">
<path d="M1440 2420 c0 -57 4 -74 20 -90 22 -22 79 -27 98 -8 9 9 12 9 12 0 0
-7 11 -12 25 -12 25 0 25 1 25 90 0 89 0 90 -25 90 -24 0 -25 -3 -25 -58 0
-62 -11 -82 -46 -82 -27 0 -34 17 -34 86 0 51 -1 54 -25 54 -24 0 -25 -2 -25
-70z"/>
<path d="M1248 2440 c-26 -27 -30 -36 -25 -68 12 -75 87 -104 156 -61 30 18
32 22 18 30 -11 6 -24 6 -36 -1 -27 -14 -64 -13 -80 3 -10 10 1 15 55 27 37 8
69 20 71 26 2 6 -8 26 -22 43 -37 44 -94 44 -137 1z m98 -17 c16 -17 15 -18
-22 -26 -60 -12 -73 -6 -46 21 26 26 45 28 68 5z"/>
<path d="M1667 2390 c-19 -85 -17 -100 13 -100 15 0 20 10 26 45 7 53 25 75
60 75 18 0 24 5 24 21 0 18 -4 21 -29 16 -20 -4 -31 -2 -35 8 -3 8 -13 15 -23
15 -14 0 -22 -16 -36 -80z"/>
<path d="M1066 2388 c-13 -13 -33 -24 -46 -26 -13 -1 -25 -4 -27 -6 -5 -4 100
-225 107 -225 3 0 13 6 24 14 18 13 18 15 -4 49 l-22 36 34 0 c78 0 107 92 49
151 -37 36 -82 39 -115 7z m83 -44 c12 -15 21 -31 21 -35 0 -14 -39 -49 -54
-49 -45 0 -64 83 -23 100 32 13 34 12 56 -16z"/>
<path d="M876 2269 c-14 -11 -26 -27 -26 -35 0 -8 -8 -14 -18 -14 -10 0 -23
-5 -29 -11 -9 -9 9 -36 69 -105 78 -90 82 -93 100 -77 18 16 18 17 -7 43 -29
30 -31 40 -10 40 9 0 27 11 40 25 36 35 34 88 -4 126 -35 35 -77 38 -115 8z
m94 -61 c14 -26 13 -29 -7 -50 -19 -18 -27 -20 -49 -13 -35 13 -47 46 -27 74
21 30 63 24 83 -11z"/>
<path d="M1929 2224 c-15 -18 -2 -47 24 -52 25 -5 40 33 21 52 -19 20 -28 20
-45 0z"/>
<path d="M2200 2105 c-46 -35 -86 -67 -87 -72 -2 -6 3 -16 11 -22 13 -11 21
-9 47 10 l32 22 28 -34 c16 -19 29 -37 29 -41 0 -10 12 -10 29 1 11 7 7 18
-18 54 l-31 46 22 15 c31 22 33 21 68 -29 33 -48 37 -50 60 -35 12 8 11 12 -6
32 -12 13 -35 44 -53 71 -18 26 -35 47 -39 46 -4 0 -45 -29 -92 -64z"/>
<path d="M709 2091 c-62 -62 -25 -161 60 -161 32 0 44 6 65 31 35 41 41 71 22
108 -31 59 -99 70 -147 22z m105 -42 c16 -24 5 -63 -21 -74 -43 -16 -91 46
-63 81 19 21 66 18 84 -7z"/>
<path d="M549 1958 c-6 -11 -9 -21 -7 -24 2 -2 53 -26 113 -54 107 -50 125
-52 125 -15 0 6 -50 33 -110 62 -106 50 -110 51 -121 31z"/>
<path d="M2292 1916 c-40 -18 -73 -36 -73 -40 1 -3 1 -13 1 -21 0 -21 22 -19
76 7 l46 23 18 -23 c10 -12 25 -22 34 -22 26 0 30 22 7 41 -12 10 -20 23 -17
28 7 11 -3 41 -13 40 -3 0 -39 -15 -79 -33z"/>
<path d="M576 1809 c-38 -45 -36 -99 5 -133 37 -31 77 -33 112 -5 28 22 51 86
41 113 -10 26 -39 15 -36 -13 3 -29 -23 -71 -43 -71 -8 0 -15 1 -15 3 0 1 9
30 19 64 10 34 16 64 13 67 -3 3 -20 6 -38 6 -24 0 -39 -8 -58 -31z m60 -26
c-3 -10 -8 -30 -12 -45 -7 -32 -19 -36 -32 -10 -11 21 -5 43 16 60 22 17 34
15 28 -5z"/>
<path d="M2317 1789 c-11 -6 -25 -26 -33 -44 -21 -51 -1 -104 48 -128 33 -16
40 -17 71 -3 45 18 61 48 54 100 -10 70 -82 108 -140 75z m95 -63 c13 -31 5
-54 -24 -65 -52 -19 -92 22 -63 65 22 33 71 33 87 0z"/>
<path d="M520 1627 c0 -19 11 -29 62 -50 34 -15 58 -30 54 -34 -4 -4 -30 -14
-58 -23 -42 -12 -53 -21 -59 -43 -4 -15 -4 -27 -1 -27 4 0 45 15 92 33 73 29
85 37 88 59 3 22 -6 29 -83 67 -48 22 -89 41 -91 41 -2 0 -4 -11 -4 -23z"/>
<path d="M2300 1556 c0 -24 3 -26 48 -26 53 0 92 -21 92 -49 0 -31 -26 -43
-85 -39 -54 3 -55 3 -55 -24 0 -28 1 -28 65 -28 57 0 69 3 90 25 27 26 31 54
14 88 -9 16 -9 22 0 25 6 2 11 12 11 23 0 17 -8 19 -74 19 -41 0 -81 3 -90 6
-12 5 -16 0 -16 -20z"/>
<path d="M584 1430 c-28 -11 -54 -48 -54 -78 0 -37 27 -78 59 -92 36 -15 96 1
111 30 28 53 -6 176 -38 137 -10 -12 -9 -21 5 -45 15 -26 16 -34 4 -56 -19
-34 -27 -26 -35 31 -13 87 -14 89 -52 73z m29 -97 c5 -23 3 -33 -6 -33 -33 0
-50 53 -25 78 15 15 22 4 31 -45z"/>
<path d="M2422 1344 c-7 -13 -15 -13 -56 -2 -54 14 -73 7 -94 -36 -17 -34 -10
-56 17 -49 12 3 17 11 14 19 -7 20 16 26 62 16 36 -7 40 -11 37 -35 -3 -22 1
-27 17 -27 15 0 21 6 21 21 0 17 4 20 24 15 19 -5 25 -1 28 19 4 18 0 26 -13
30 -11 4 -19 12 -19 20 0 19 -28 26 -38 9z"/>
<path d="M593 1197 c-31 -29 -36 -40 -36 -78 0 -36 36 -132 59 -158 1 -2 50
19 108 47 l105 50 -29 60 c-56 115 -134 145 -207 79z m123 -32 c20 -13 51 -72
43 -79 -2 -2 -31 -17 -65 -34 l-61 -31 -16 35 c-23 48 -21 71 8 99 27 28 61
32 91 10z"/>
<path d="M2307 1178 c-13 -33 -14 -44 -4 -50 20 -13 23 -10 40 34 13 33 14 44
4 50 -20 13 -23 10 -40 -34z"/>
<path d="M2166 1067 c-43 -66 -52 -97 -27 -97 6 0 24 21 42 48 18 26 33 48 35
50 5 7 44 -19 44 -29 0 -5 -12 -28 -27 -50 -22 -34 -24 -42 -12 -50 21 -13 22
-12 51 37 25 40 29 43 48 32 26 -17 26 -21 -11 -75 -27 -39 -29 -47 -17 -59
12 -12 21 -4 65 60 l51 75 -98 65 -98 65 -46 -72z"/>
<path d="M2080 955 c-11 -13 -7 -22 23 -53 38 -39 46 -69 25 -90 -22 -22 -46
-12 -85 33 l-39 46 -19 -21 c-18 -20 -18 -21 30 -70 57 -58 91 -65 130 -25 14
13 25 29 25 35 0 5 6 10 14 10 7 0 18 6 24 13 8 10 -3 28 -44 75 -31 34 -59
62 -64 62 -4 0 -13 -7 -20 -15z"/>
<path d="M831 915 c-17 -20 -31 -47 -31 -61 0 -29 50 -84 76 -84 14 0 11 -7
-14 -33 -31 -32 -32 -34 -14 -50 17 -16 22 -12 101 74 69 74 81 92 71 104 -7
8 -19 15 -26 15 -8 0 -14 4 -14 9 0 4 -12 20 -26 35 -40 39 -84 36 -123 -9z
m107 -27 c18 -18 14 -53 -8 -73 -27 -25 -73 -10 -78 24 -7 45 55 80 86 49z"/>
<path d="M1042 803 c2 -10 14 -19 28 -21 29 -4 60 -29 60 -49 0 -18 -8 -17
-69 17 -61 34 -71 30 -71 -31 0 -98 149 -119 180 -25 20 61 -30 126 -98 126
-26 0 -33 -4 -30 -17z m33 -90 c39 -18 41 -36 6 -41 -27 -4 -51 14 -51 39 0
23 1 23 45 2z"/>
<path d="M1864 795 c-14 -14 -29 -23 -33 -21 -5 3 -16 0 -25 -7 -15 -11 -12
-22 39 -120 31 -59 59 -107 63 -107 4 0 14 4 22 10 12 8 12 14 -3 45 -22 45
-22 45 7 45 74 0 103 95 47 151 -38 37 -82 39 -117 4z m94 -69 c4 -34 -13 -56
-44 -56 -30 0 -58 41 -49 70 16 50 87 39 93 -14z"/>
<path d="M1256 722 c-4 -10 -28 -59 -55 -110 -27 -50 -46 -94 -43 -97 3 -3 15
-5 26 -5 16 1 29 18 56 75 19 41 38 75 41 75 4 0 9 -24 13 -52 14 -114 16
-118 45 -118 24 0 31 9 61 75 19 41 37 75 41 75 4 0 10 -35 14 -77 7 -83 16
-103 46 -103 23 0 23 -3 3 123 -17 102 -29 127 -64 127 -10 0 -29 -26 -50 -70
-19 -38 -37 -70 -40 -70 -3 0 -11 34 -17 76 -6 41 -12 76 -14 78 -2 2 -16 6
-31 10 -20 5 -28 2 -32 -12z"/>
<path d="M1550 685 c0 -31 26 -43 47 -22 21 21 9 47 -22 47 -20 0 -25 -5 -25
-25z"/>
</g>
</svg>
